
<svg version="1.1" id="Layer_1" xmlns="http://www.w3.org/2000/svg" xmlns:xlink="http://www.w3.org/1999/xlink" x="0px" y="0px"
	 viewBox="0 0 512 512" style="enable-background:new 0 0 512 512;" xml:space="preserve">
<g>
	<g>
		<g>
			<path d="M458.596,344.337c0.418-1.109,0.623-2.304,0.555-3.524c-1.195-19.533-3.319-41.003-6.298-62.421
				c-7.151-57.873-19.652-108.578-38.101-130.031c-3.456-4.011-7.117-6.511-10.931-7.561c-0.137-0.043-0.282-0.077-0.427-0.111
				l-57.446-36.932c-2.765-1.792-6.451-1.656-9.173,0.154c-1.502,0.998-2.671,2.432-3.473,4.036
				c-0.188,0.375-1.323,4.275-1.673,4.275L264.531,71.97V59.733c0-4.719-3.823-8.533-8.533-8.533
				c-9.412,0-17.067-7.654-17.067-17.067c0-9.412,7.654-17.067,17.067-17.067c9.412,0,17.067,7.654,17.067,17.067
				c0,4.719,3.823,8.533,8.533,8.533c4.71,0,8.533-3.814,8.533-8.533C290.131,15.309,274.822,0,255.998,0
				s-34.133,15.309-34.133,34.133c0,15.872,10.897,29.261,25.6,33.05v4.787l-67.046,40.218c-1.442-3.584-2.671-7.526-6.596-9.088
				c-4.847-1.929-8.695,1.254-12.493,3.695c-5.043,3.243-10.069,6.477-15.112,9.711c-11.119,7.151-22.238,14.302-33.357,21.453
				l-4.25,2.722c-0.154,0.043-0.299,0.077-0.444,0.119c-3.806,1.05-7.467,3.55-10.923,7.561
				C78.82,169.779,66.319,220.382,59.168,278.17c-2.987,21.487-5.129,43.051-6.323,62.643c-0.068,1.22,0.137,2.423,0.563,3.541
				c-2.483,45.705-1.997,90.854,1.229,125.764c0.29,3.183,2.338,5.777,5.094,6.98v17.835c0,9.412,7.654,17.067,17.067,17.067h25.6
				c9.412,0,17.067-7.654,17.067-17.067v-18.842c1.604-1.22,2.807-2.97,3.234-5.06c0.043-0.205,2.347-11.46,5.751-24.559
				l8.516,25.557c1.169,3.49,4.42,5.837,8.098,5.837v17.067c0,9.412,7.654,17.067,17.067,17.067h187.733
				c9.412,0,17.067-7.654,17.067-17.067v-17.067c3.678,0,6.938-2.347,8.098-5.837l8.516-25.557
				c3.405,13.099,5.709,24.354,5.751,24.559c0.427,2.091,1.63,3.84,3.234,5.06v18.842c0,9.412,7.654,17.067,17.067,17.067h25.6
				c9.412,0,17.067-7.654,17.067-17.067v-17.826c2.765-1.212,4.796-3.806,5.103-6.989C460.593,435.2,461.071,390.05,458.596,344.337
				z M76.798,494.933v-17.067h25.6l0.009,17.067H76.798z M125.608,213.41c-0.145,1.34-0.256,2.586-0.393,3.908
				c-1.28,12.518-2.398,24.414-3.302,35.593c-2.415,29.807-3.49,55.023-3.354,77.167c-0.009,0.819-0.034,1.681-0.043,2.492
				l-48.034,0.23c1.707-24.047,4.284-45.978,7.339-65.604c0.401-2.56,0.819-5.069,1.246-7.552c0.154-0.947,0.316-1.877,0.469-2.799
				c4.599-26.505,10.095-48.777,15.479-65.493c0.759-2.321,1.51-4.582,2.253-6.673c0.102-0.299,0.196-0.546,0.307-0.828
				c4.608-12.783,8.969-21.214,12.39-24.798c0.555,0.393,1.143,0.759,1.664,1.161c0.87,0.683,1.707,1.382,2.492,2.108
				c0.93,0.888,1.809,1.784,2.628,2.705c0.666,0.759,1.323,1.51,1.911,2.27c0.734,0.973,1.391,1.937,2.014,2.91
				c0.486,0.768,0.998,1.527,1.417,2.295c0.563,0.998,1.033,1.988,1.485,2.97c0.333,0.725,0.7,1.451,0.981,2.15
				c0.41,1.015,0.734,1.98,1.05,2.927c0.205,0.614,0.444,1.271,0.614,1.852c0.282,0.973,0.486,1.869,0.691,2.731
				c0.102,0.461,0.239,0.981,0.324,1.399c0.188,0.913,0.299,1.681,0.401,2.406c0.043,0.247,0.102,0.58,0.137,0.802
				c0.102,0.87,0.171,1.562,0.196,1.988C127.119,199.185,126.334,206.396,125.608,213.41z M255.998,86.75l63.863,38.315
				c-1.399,0.7-2.807,1.382-4.386,1.818c-0.444,0.128-0.913,0.205-1.357,0.307c-2.176,0.478-4.437,0.811-6.921,0.811h-102.4
				c-1.289,0-2.586-0.145-3.874-0.375c-0.418-0.077-0.836-0.205-1.254-0.307c-0.87-0.205-1.741-0.435-2.594-0.734
				c-0.478-0.171-0.956-0.375-1.425-0.563c-0.785-0.333-1.562-0.683-2.321-1.075c-0.171-0.094-0.341-0.196-0.512-0.299
				L255.998,86.75z M177.576,460.8h-23.979h-2.381l-6.571-19.712c-0.085-0.256-3.345-10.897-5.922-35.132
				c-0.239-2.176-0.452-4.386-0.657-6.639c-0.401-4.395-0.777-9.131-1.101-14.293v-0.008c-0.64-10.146-1.101-21.845-1.254-35.149
				h60.365c-1.05,47.607-6.639,67.959-15.351,99.439C179.727,452.949,178.66,456.806,177.576,460.8z M195.257,460.8
				c0.657-2.381,1.297-4.693,1.92-6.938c10.078-36.42,16.154-58.394,16.154-121.062c0-7.996-0.145-15.94-0.341-23.834
				c-0.043-1.69-0.085-3.379-0.145-5.077c-0.23-7.671-0.555-15.292-0.981-22.818c-0.077-1.229-0.162-2.44-0.239-3.661
				c-0.418-6.869-0.913-13.653-1.485-20.361c-0.111-1.271-0.205-2.569-0.316-3.831c-0.657-7.287-1.408-14.438-2.227-21.495
				c-0.188-1.527-0.375-3.046-0.563-4.582c-0.862-6.989-1.792-13.901-2.816-20.625c-0.034-0.196-0.06-0.418-0.094-0.614
				c-0.956-6.204-2.005-12.228-3.098-18.167h109.901c-0.162,0.879-0.307,1.792-0.461,2.671c-0.239,1.323-0.461,2.671-0.691,4.002
				c-1.34,7.74-2.569,15.684-3.669,23.834c-0.154,1.135-0.324,2.27-0.469,3.413c-1.724,13.133-3.132,26.709-4.224,40.713
				c-0.265,3.482-0.521,6.989-0.751,10.522c-0.213,3.234-0.444,6.443-0.623,9.711c-0.367,6.741-0.648,13.559-0.87,20.42
				c-0.068,2.202-0.128,4.403-0.179,6.613c-0.188,7.68-0.324,15.394-0.324,23.168c0,62.669,6.076,84.642,16.154,121.062
				c0.623,2.244,1.263,4.557,1.92,6.938H195.257z M373.886,399.804c-0.188,2.022-0.384,4.028-0.589,5.99
				c-2.577,24.328-5.854,35.004-5.931,35.243l-6.588,19.763h-2.381h-23.979c-1.084-3.994-2.15-7.851-3.149-11.494
				c-8.713-31.479-14.302-51.831-15.351-99.439h60.365C376.044,370.193,375.089,386.697,373.886,399.804z M409.598,494.933v-17.067
				h25.609l0.008,17.067H409.598z M393.478,332.8c-0.009-0.93-0.026-1.929-0.043-2.876c0.196-35.942-2.782-79.872-9.412-138.189
				c0.026-0.435,0.094-1.143,0.205-2.014c0.017-0.137,0.06-0.35,0.077-0.495c0.017-0.094,0.043-0.213,0.051-0.307
				c0.102-0.725,0.222-1.493,0.401-2.406c0.094-0.427,0.23-0.947,0.341-1.425c0.196-0.862,0.401-1.749,0.683-2.714
				c0.171-0.572,0.401-1.212,0.606-1.818c0.316-0.956,0.648-1.937,1.058-2.961c0.282-0.674,0.623-1.374,0.947-2.065
				c0.461-1.016,0.956-2.022,1.519-3.055c0.41-0.725,0.887-1.459,1.348-2.193c0.64-0.998,1.323-2.005,2.082-2.995
				c0.563-0.725,1.178-1.442,1.809-2.159c0.845-0.964,1.766-1.903,2.748-2.816c0.725-0.691,1.51-1.348,2.313-1.988
				c0.503-0.41,1.101-0.768,1.647-1.161c0.674,0.717,1.382,1.596,2.116,2.654c0.026,0.043,0.06,0.085,0.085,0.128
				c0.751,1.101,1.545,2.398,2.364,3.866c0.026,0.043,0.051,0.077,0.077,0.128c0.819,1.485,1.664,3.157,2.534,5.001
				c0.154,0.35,0.324,0.751,0.486,1.118c0.546,1.186,1.092,2.458,1.647,3.772c8.166,19.712,17.365,53.888,23.919,97.647
				c0.333,2.287,0.683,4.523,1.007,6.869c0.102,0.725,0.196,1.485,0.299,2.219c2.082,15.531,3.84,32.282,5.12,50.236H393.478z"/>
			<path d="M352.364,398.566c1.664,1.664,3.849,2.5,6.033,2.5c2.185,0,4.369-0.836,6.033-2.5c3.336-3.336,3.336-8.73,0-12.066
				l-17.067-17.067c-3.336-3.336-8.73-3.336-12.066,0c-3.337,3.337-3.337,8.73,0,12.066L352.364,398.566z"/>
			<path d="M164.631,369.434L147.564,386.5c-3.337,3.336-3.337,8.73,0,12.066c1.664,1.664,3.849,2.5,6.033,2.5
				c2.185,0,4.369-0.836,6.033-2.5l17.067-17.067c3.337-3.337,3.337-8.73,0-12.066C173.361,366.097,167.968,366.097,164.631,369.434
				z"/>
		</g>
	</g>
</g>
<g>
</g>
<g>
</g>
<g>
</g>
<g>
</g>
<g>
</g>
<g>
</g>
<g>
</g>
<g>
</g>
<g>
</g>
<g>
</g>
<g>
</g>
<g>
</g>
<g>
</g>
<g>
</g>
<g>
</g>
</svg>
